<mxfile host="app.diagrams.net" modified="2024-04-01T01:01:36.548Z" agent="Mozilla/5.0 (iPad; CPU OS 17_3_1 like Mac OS X) AppleWebKit/605.1.15 (KHTML, like Gecko) Version/17.3 Mobile/15E148 Safari/604.1 OPT/4.6.1" version="24.2.1" etag="tdqLoa3AkZ89rhkMMb9N" type="github">
  <diagram name="Page-1" id="r9BgLIVvG9-KoMTnHHlV">
    <mxGraphModel>
      <root>
        <mxCell id="0" />
        <mxCell id="1" parent="0" />
      </root>
    </mxGraphModel>
  </diagram>
</mxfile>
